<svg width="360" height="497" viewBox="0 0 360 497" fill="none" xmlns="http://www.w3.org/2000/svg">
<g opacity="0.5">
<path d="M797.056 -72C793.95 75.5228 712.364 214.111 404.34 190.457C79.6207 165.521 -77.4287 329.907 -156.156 496.483H-156.543C-77.7837 329.798 79.3703 165.258 404.407 190.223C712.056 213.85 793.563 75.4039 796.672 -72H797.056Z" fill="black" fill-opacity="0.6"/>
<path d="M785.017 -72C799.2 68.951 729.169 200.187 406.89 183.071C55.3673 164.4 -91.8444 330.223 -158.132 496.483H-158.522C-92.1962 330.114 55.0947 164.148 406.954 182.837C728.83 199.934 798.798 68.8418 784.631 -72H785.017Z" fill="black" fill-opacity="0.6"/>
<path d="M775.279 -72C805.281 62.4122 744.853 186.492 409.449 175.684C30.3083 163.466 -105.706 330.56 -159.104 496.483H-159.49C-106.077 330.449 30.0135 163.22 409.484 175.448C744.488 186.244 804.849 62.2933 774.877 -72H775.279Z" fill="black" fill-opacity="0.6"/>
<path d="M767.934 -72C812.109 55.8891 759.31 173.042 412.012 168.297C4.38451 162.723 -119.006 330.905 -159.026 496.483H-159.4C-119.367 330.796 4.08661 162.487 412.041 168.061C758.908 172.8 811.659 55.7682 767.526 -72H767.934Z" fill="black" fill-opacity="0.6"/>
<path d="M763.101 -72C819.662 49.3874 772.447 159.857 414.554 160.91C-22.4539 162.195 -131.633 331.25 -157.818 496.483H-158.202C-132.01 331.139 -22.774 161.961 414.57 160.674C772.013 159.624 819.164 49.2744 762.657 -72H763.101Z" fill="black" fill-opacity="0.6"/>
<path d="M760.746 -72C827.737 42.9345 784.148 146.961 417.108 153.523C-50.2434 161.879 -143.506 331.578 -155.439 496.483H-155.822C-143.873 331.467 -50.5699 161.651 417.108 153.288C783.682 146.737 827.227 42.8273 760.296 -72H760.746Z" fill="black" fill-opacity="0.6"/>
<path d="M761.044 -72C836.374 36.5439 794.345 134.373 419.657 146.137C-79.0362 161.791 -154.48 331.872 -151.799 496.483H-152.183C-154.877 331.761 -79.3754 161.567 419.638 145.901C793.851 134.153 835.826 36.4348 760.566 -72H761.044Z" fill="black" fill-opacity="0.6"/>
<path d="M764.011 -72C845.426 30.2314 802.919 122.12 422.209 138.744C-81.4735 160.748 -157.485 314.946 -148.947 471.016C-148.48 479.507 -147.782 487.996 -146.855 496.483H-147.238C-148.147 488.009 -148.843 479.525 -149.327 471.032C-157.884 314.845 -81.819 160.528 422.183 138.514C802.396 121.908 844.843 30.1261 763.52 -72H764.011Z" fill="black" fill-opacity="0.6"/>
<path d="M769.508 -72C854.584 24.0104 809.737 110.23 424.768 131.361C-80.6926 159.107 -160.514 298.216 -148.112 444.881C-146.66 462.036 -143.947 479.29 -140.505 496.483H-140.892C-144.331 479.296 -147.041 462.046 -148.498 444.9C-160.907 298.118 -81.0348 158.889 424.746 131.127C809.186 110.026 853.966 23.9168 768.976 -72H769.508Z" fill="black" fill-opacity="0.6"/>
<path d="M777.558 -72C863.747 17.9084 814.678 98.732 427.319 123.974C-80.1477 157.044 -164.365 283.549 -148.961 421.213C-146.179 446.099 -140.138 471.351 -132.753 496.483H-133.146C-140.524 471.361 -146.562 446.119 -149.345 421.231C-164.764 283.45 -80.4836 156.83 427.29 123.733C814.105 98.5331 863.097 17.809 776.994 -72H777.558Z" fill="black" fill-opacity="0.6"/>
<path d="M788.042 -72C872.709 11.9448 817.663 87.6508 429.867 116.588C-80.0022 154.633 -168.913 270.626 -151.199 399.868C-146.851 431.591 -136.081 464.115 -123.534 496.483H-123.93C-136.468 464.121 -147.231 431.616 -151.58 399.897C-169.309 270.532 -80.3509 154.424 429.835 116.354C817.083 87.4578 872.028 11.8493 787.446 -72H788.042Z" fill="black" fill-opacity="0.6"/>
<path d="M800.516 -72C880.946 6.14688 818.544 77.0201 432.424 109.201C-80.3069 151.933 -174.035 259.149 -154.566 380.614C-148.512 418.359 -131.534 457.492 -112.809 496.483H-113.211C-131.939 457.502 -148.905 418.388 -154.955 380.646C-174.447 259.052 -80.6714 151.726 432.373 108.967C817.932 76.8349 880.236 6.0533 799.886 -72H800.516Z" fill="black" fill-opacity="0.6"/>
<path d="M814.909 -72C888.439 0.541985 817.296 66.8611 434.975 101.812C-81.0895 148.991 -179.667 248.863 -158.876 363.203C-151.044 406.253 -126.301 451.361 -100.54 496.483H-100.952C-126.7 451.378 -151.425 406.288 -159.269 363.238C-180.073 248.768 -81.4318 148.788 434.931 101.58C816.668 66.6817 887.707 0.454254 814.237 -72H814.909Z" fill="black" fill-opacity="0.6"/>
<path d="M830.457 -72C894.52 -4.84067 813.783 57.205 437.523 94.4255C-82.3356 145.852 -185.74 239.558 -163.969 347.398C-154.718 393.212 -122.872 441.607 -90.7566 490.387L-86.7568 496.483H-87.1784L-91.1243 490.482C-123.236 441.691 -155.092 393.292 -164.337 347.435C-186.133 239.465 -82.681 145.659 437.488 94.1915C813.14 57.0315 893.753 -4.92645 829.763 -72H830.457Z" fill="black" fill-opacity="0.6"/>
<path d="M846.68 -72C898.896 -9.96988 808.013 48.0735 440.073 87.0387C-84.0171 142.542 -192.188 231.06 -169.717 332.982C-159.696 378.431 -123.704 426.559 -87.0185 475.603C-81.8186 482.546 -76.6345 489.506 -71.4663 496.483H-71.891C-77.0149 489.542 -82.1714 482.618 -87.3608 475.708C-124.059 426.643 -160.06 378.503 -170.082 333.022C-192.584 230.967 -84.3625 142.341 440.025 86.8067C807.351 47.9058 898.103 -10.0537 845.948 -72H846.68Z" fill="black" fill-opacity="0.6"/>
<path d="M862.812 -72C901.162 -14.8223 799.966 39.4799 442.624 79.6519C-86.0959 139.089 -198.97 223.231 -175.999 319.766C-165.312 364.681 -125.228 412.29 -83.9312 461.341C-74.1315 472.979 -64.281 484.7 -54.7063 496.483H-55.131C-64.6613 484.737 -74.4928 473.057 -84.2608 461.456C-125.574 412.386 -165.673 364.759 -176.37 319.809C-199.373 223.137 -86.4445 138.892 442.577 79.4199C799.307 39.3181 900.331 -14.9022 862.042 -72H862.812Z" fill="black" fill-opacity="0.6"/>
<path d="M877.821 -72C900.717 -19.3744 789.747 31.4284 445.174 72.2652C-88.5504 135.518 -206.046 215.955 -182.748 307.587C-171.493 351.841 -127.398 398.737 -81.4795 447.563C-66.333 463.668 -50.99 479.986 -36.563 496.487H-37.0035C-51.3989 480.027 -66.7007 463.752 -81.8091 447.688C-127.746 398.844 -171.861 351.939 -183.125 307.636C-206.458 215.869 -88.9022 135.327 445.117 72.0371C789.085 31.2685 899.877 -19.4524 877.019 -72H877.821Z" fill="black" fill-opacity="0.6"/>
<path d="M891.023 -72C897.508 -23.6088 777.489 23.9168 447.727 64.8764C-91.3286 131.841 -213.385 209.142 -189.89 296.305C-178.164 339.828 -130.141 385.827 -79.6209 434.224C-58.386 454.556 -36.7359 475.311 -17.1364 496.483H-17.5865C-37.1511 475.356 -58.7664 454.646 -79.9442 434.357C-130.486 385.941 -178.512 339.922 -190.267 296.352C-213.8 209.054 -91.6995 131.65 447.667 64.6464C776.836 23.755 896.658 -23.6848 890.193 -72H891.023Z" fill="black" fill-opacity="0.6"/>
<path d="M901.258 -72C891.116 -27.5273 763.415 16.9102 450.276 57.4897C-94.4305 128.08 -220.962 202.724 -197.372 285.799C-185.24 328.527 -133.408 373.501 -78.3205 421.301C-50.3126 445.6 -21.468 470.64 3.43385 496.483H2.98062C-21.8896 470.69 -50.6803 445.701 -78.6374 421.441C-133.75 373.62 -185.601 328.628 -197.752 285.85C-221.38 202.634 -94.7886 127.887 450.21 57.2538C762.749 16.7562 890.276 -27.6014 900.484 -72H901.258Z" fill="black" fill-opacity="0.6"/>
<path d="M907.752 -72C881.395 -31.1281 747.806 10.3852 452.831 50.1029C-97.79 124.24 -228.743 196.631 -205.14 275.97C-192.678 317.857 -137.147 361.702 -77.5407 408.764C-42.0658 436.775 -5.14873 465.924 24.9953 496.483H24.5421C-5.56711 465.978 -42.4271 436.878 -77.8482 408.914C-137.48 361.831 -193.04 317.964 -205.517 276.022C-229.161 196.544 -98.1576 124.051 452.764 49.8768C747.15 10.235 880.397 -31.2022 906.763 -72H907.752Z" fill="black" fill-opacity="0.6"/>
<path d="M909.495 -72C868.141 -34.4326 730.989 4.29288 455.373 42.7161C-101.425 120.337 -236.723 190.82 -213.171 266.731C-200.44 307.755 -141.328 350.387 -77.265 396.585C-33.6732 428.025 12.1973 461.114 47.3236 496.483H46.8609C11.7695 461.175 -34.0314 428.134 -77.5597 396.743C-141.657 350.52 -200.801 307.866 -213.549 266.783C-237.145 190.734 -101.793 120.148 455.303 42.4861C730.336 4.14471 867.193 -34.5028 908.551 -72H909.495Z" fill="black" fill-opacity="0.6"/>
<path d="M906.987 -72C852.315 -37.4699 713.309 -1.42704 457.929 35.3274C-105.271 116.373 -244.867 185.246 -221.413 258.005C-208.47 298.153 -145.893 339.509 -77.444 384.744C-25.1237 419.32 30.6036 456.168 70.2494 496.483H69.7835C30.1662 456.233 -25.4819 419.437 -77.7324 384.909C-146.216 339.647 -208.825 298.27 -221.787 258.055C-245.292 185.162 -105.645 116.188 457.856 35.0993C712.665 -1.56741 851.335 -37.5382 905.969 -72H906.987Z" fill="black" fill-opacity="0.6"/>
<path d="M898.918 -72C833.312 -40.2714 695.161 -6.82723 460.478 27.9407C-109.324 112.363 -253.167 179.879 -229.853 249.733C-216.744 289 -150.827 329.032 -78.0708 373.218C-16.4611 410.635 50.0421 451.035 93.5705 496.483H93.1014C49.5984 451.104 -16.8098 410.758 -78.3434 373.388C-151.144 329.176 -217.099 289.123 -230.227 249.787C-253.588 179.799 -109.711 112.174 460.402 27.7106C694.515 -6.97346 832.427 -40.3416 897.964 -72H898.918Z" fill="black" fill-opacity="0.6"/>
<path d="M886.051 -72C812.131 -42.8857 676.846 -11.9857 463.03 20.5539C-113.596 108.306 -261.613 174.695 -238.463 241.861C-225.234 280.249 -156.097 318.924 -79.1131 361.987C-7.68774 401.94 70.463 445.676 117.056 496.483H116.59C70.0003 445.75 -8.03955 402.069 -79.3761 362.16C-156.392 319.076 -225.583 280.374 -238.837 241.913C-262.031 174.615 -113.967 108.123 462.95 20.3258C676.222 -12.13 811.161 -42.952 884.989 -72H886.051Z" fill="black" fill-opacity="0.6"/>
<path d="M868.028 -72C788.676 -45.3519 658.719 -16.9628 465.583 13.1671C-118.025 104.21 -270.181 169.662 -247.212 234.341C-233.901 271.858 -161.664 309.152 -80.5375 351.036C1.15982 393.216 91.8423 440.054 140.537 496.483H140.068C91.3859 440.141 0.814362 393.353 -80.791 351.219C-161.965 309.305 -234.243 271.992 -247.586 234.4C-270.593 169.578 -118.383 104.031 465.526 12.9332C658.101 -17.1071 787.729 -45.4201 866.957 -72H868.028Z" fill="black" fill-opacity="0.6"/>
<path d="M845.975 -72C763.917 -47.7108 640.961 -21.8113 468.137 5.78622C-122.618 100.085 -278.888 164.763 -256.131 227.134C-242.76 263.785 -167.547 299.693 -82.3697 340.349C10.0148 384.445 114.088 434.137 163.797 496.483H163.328C113.625 434.221 9.66934 384.58 -82.6169 340.538C-167.845 299.857 -243.105 263.933 -256.502 227.194C-279.3 164.673 -122.992 99.9036 468.045 5.55227C640.349 -21.9536 762.985 -47.779 844.895 -72H845.975Z" fill="black" fill-opacity="0.6"/>
<path d="M820.76 -72C738.451 -50.0015 623.7 -26.5643 470.673 -1.60835C-127.353 95.9247 -287.673 159.98 -265.151 220.205C-251.757 256.024 -173.683 290.523 -84.5468 329.911C18.8798 375.612 137.161 427.898 186.696 496.483H186.246C136.705 427.988 18.5439 375.76 -84.7781 330.104C-173.981 290.69 -252.1 256.166 -265.525 220.266C-288.101 159.898 -127.727 95.7453 470.594 -1.8345C623.095 -26.7066 737.535 -50.0678 819.673 -72H820.76Z" fill="black" fill-opacity="0.6"/>
<path d="M792.149 -72C712.147 -52.2513 607.155 -31.2763 473.229 -8.99512C-132.219 91.739 -296.571 155.303 -274.28 213.524C-260.886 248.516 -180.061 281.619 -87.0614 319.709C27.7179 366.716 161 421.321 209.124 496.483H208.677C160.541 421.416 27.3883 366.868 -87.2833 319.906C-180.346 281.791 -261.226 248.666 -274.654 213.587C-296.998 155.222 -132.593 91.5655 473.144 -9.22516C606.568 -31.4205 711.209 -52.3098 791.005 -72H792.149Z" fill="black" fill-opacity="0.6"/>
<path d="M761.361 -72C685.686 -54.4815 591.305 -35.9649 475.781 -16.3819C-137.214 87.53 -305.559 150.718 -283.513 207.067C-270.138 241.252 -186.675 272.961 -89.9044 309.73C-40.2433 328.597 12.92 348.796 61.9282 371.35C137.632 406.19 203.372 446.651 230.961 496.483H230.527C202.953 446.731 137.287 406.331 61.6905 371.539C12.6982 348.993 -40.462 328.796 -90.1231 309.934C-186.961 273.143 -270.483 241.408 -283.893 207.134C-305.99 150.636 -137.588 87.3506 475.692 -16.608C590.741 -36.1033 684.757 -54.5517 760.208 -72H761.361Z" fill="black" fill-opacity="0.6"/>
<path d="M728.569 -72C659.144 -56.7176 576.236 -40.6594 478.33 -23.7687C-142.318 83.2975 -314.638 146.213 -292.832 200.809C-279.496 234.207 -193.501 264.536 -93.0564 299.962C-32.5749 321.294 33.1454 344.472 91.4019 371.288C166.291 405.752 228.849 446.22 252.195 496.483H251.763C228.421 446.3 165.949 405.892 91.1738 371.479C32.9236 344.669 -32.7873 321.495 -93.2592 300.167C-193.776 264.715 -279.838 234.365 -293.206 200.874C-315.075 146.133 -142.692 83.1221 478.223 -23.9948C575.672 -40.8075 658.218 -56.7937 727.393 -72H728.569Z" fill="black" fill-opacity="0.6"/>
</g>
</svg>
